<svg width="53" height="65" viewBox="0 0 53 65" fill="none" xmlns="http://www.w3.org/2000/svg">
<path fill-rule="evenodd" clip-rule="evenodd" d="M37.0002 6.62842H6.73047V42.1041H37.0002V6.62842ZM39.5987 14.7567V12.0979H47.1135V14.7567H39.5987ZM39.5987 17.5674V20.2262H47.1135V17.5674H39.5987ZM39.5987 25.6957V23.0369H47.1135V25.6957H39.5987ZM39.5987 28.5064V31.1651H47.1135V28.5064H39.5987ZM39.5987 40.4329V42.1041H47.1486V40.4329C46.8957 38.4882 45.6854 37.4449 45.1119 37.1664C44.5617 36.8372 43.0892 36.3763 41.6003 37.1664C40.1114 37.9564 39.6455 39.6732 39.5987 40.4329ZM6.73047 44.9148V58.5126H37.0002V44.9148H6.73047ZM9.18847 47.6114H13.613V55.8157H9.18847V47.6114ZM19.5475 54.1823L19.2314 52.5111L24.2179 51.4476L24.4988 53.1188L19.5475 54.1823ZM34.542 9.28693H9.18847V16.1238L10.5229 16.1618V14.8324H13.0512V12.0976H15.5093V14.8324H18.1078V12.0976H20.5659V14.8324H23.1645V12.0976H25.6226V14.8324H28.2211V12.0976H30.6792V14.8324H33.2076V16.1618H34.542V9.28693ZM9.18847 25.6955H10.5229V23.0367H13.0512V20.3019H15.5093V23.0367H18.1078V20.3019H20.5659V23.0367H23.1645V20.3019H25.6226V23.0367H28.2211V20.3019H30.6792V23.0367H33.2076V25.6955H34.542V16.2378H33.2076V17.4912H10.5229V16.2378L9.18847 16.1998V25.6955ZM10.5229 33.8997H9.28013L34.5369 33.9376L33.2076 33.8997V31.241H30.6792V28.5062H28.2211V31.241H25.6226V28.5062H23.1645V31.241H20.5659V28.5062H18.1078C18.0797 29.2659 18.0961 30.6459 18.1078 31.241H15.5093V28.5062H13.0512V31.241H10.5229V33.8997ZM9.18847 25.6955V33.8996V33.8997V33.9376V39.4451H34.542V33.9377V33.9376V25.6955H9.18847ZM17.3354 55.8536L16.5628 51.6375C16.5043 51.283 16.5909 50.4981 17.4056 50.1942L24.9906 48.6369C25.3651 48.5483 26.1705 48.6445 26.3952 49.7384L27.2029 54.3343C27.156 54.7015 26.8657 55.4586 26.0792 55.5498L24.8852 55.8157L34.542 55.8536V47.6114H13.6482V55.8536H17.3354Z" fill="#FFFEFE"/>
<path fill-rule="evenodd" clip-rule="evenodd" d="M37.0002 6.62842H6.73047V42.1041H37.0002V6.62842ZM39.5987 14.7567V12.0979H47.1135V14.7567H39.5987ZM39.5987 17.5674V20.2262H47.1135V17.5674H39.5987ZM39.5987 25.6957V23.0369H47.1135V25.6957H39.5987ZM39.5987 28.5064V31.1651H47.1135V28.5064H39.5987ZM39.5987 40.4329V42.1041H47.1486V40.4329C46.8957 38.4882 45.6854 37.4449 45.1119 37.1664C44.5617 36.8372 43.0892 36.3763 41.6003 37.1664C40.1114 37.9564 39.6455 39.6732 39.5987 40.4329ZM6.73047 44.9148V58.5126H37.0002V44.9148H6.73047ZM9.18847 47.6114H13.613V55.8157H9.18847V47.6114ZM19.5475 54.1823L19.2314 52.5111L24.2179 51.4476L24.4988 53.1188L19.5475 54.1823ZM34.542 9.28693H9.18847V16.1238L10.5229 16.1618V14.8324H13.0512V12.0976H15.5093V14.8324H18.1078V12.0976H20.5659V14.8324H23.1645V12.0976H25.6226V14.8324H28.2211V12.0976H30.6792V14.8324H33.2076V16.1618H34.542V9.28693ZM9.18847 25.6955H10.5229V23.0367H13.0512V20.3019H15.5093V23.0367H18.1078V20.3019H20.5659V23.0367H23.1645V20.3019H25.6226V23.0367H28.2211V20.3019H30.6792V23.0367H33.2076V25.6955H34.542V16.2378H33.2076V17.4912H10.5229V16.2378L9.18847 16.1998V25.6955ZM10.5229 33.8997H9.28013L34.5369 33.9376L33.2076 33.8997V31.241H30.6792V28.5062H28.2211V31.241H25.6226V28.5062H23.1645V31.241H20.5659V28.5062H18.1078C18.0797 29.2659 18.0961 30.6459 18.1078 31.241H15.5093V28.5062H13.0512V31.241H10.5229V33.8997ZM9.18847 25.6955V33.8996V33.8997V33.9376V39.4451H34.542V33.9377V33.9376V25.6955H9.18847ZM17.3354 55.8536L16.5628 51.6375C16.5043 51.283 16.5909 50.4981 17.4056 50.1942L24.9906 48.6369C25.3651 48.5483 26.1705 48.6445 26.3952 49.7384L27.2029 54.3343C27.156 54.7015 26.8657 55.4586 26.0792 55.5498L24.8852 55.8157L34.542 55.8536V47.6114H13.6482V55.8536H17.3354Z" fill="url(#paint0_linear_287_1237)" fill-opacity="0.2"/>
<rect x="2.65951" y="1.98128" width="48.5389" height="61.159" rx="2.41761" stroke="#F5F5F5" stroke-width="3.33464"/>
<rect x="2.65951" y="1.98128" width="48.5389" height="61.159" rx="2.41761" stroke="url(#paint1_linear_287_1237)" stroke-opacity="0.2" stroke-width="3.33464"/>
<defs>
<linearGradient id="paint0_linear_287_1237" x1="7" y1="66" x2="54.5" y2="7" gradientUnits="userSpaceOnUse">
<stop/>
<stop offset="1" stop-opacity="0"/>
</linearGradient>
<linearGradient id="paint1_linear_287_1237" x1="0.999999" y1="65" x2="53" y2="1.47826e-06" gradientUnits="userSpaceOnUse">
<stop/>
<stop offset="1" stop-opacity="0"/>
</linearGradient>
</defs>
</svg>
