<svg width="69" height="47" viewBox="0 0 69 47" fill="none" xmlns="http://www.w3.org/2000/svg">
<path d="M60.6394 46.8732H9.04987C4.59748 46.868 0.9894 43.1368 0.984375 38.5329V38.5324C0.990987 35.2113 2.85123 32.341 5.55193 30.9686L5.59993 30.9466L5.65587 30.9193L34.8358 17.2603L64.0098 30.9587C66.7642 32.3343 68.6308 35.2007 68.6308 38.518C68.6308 43.0988 65.0716 46.8198 60.6571 46.8853H60.6511L60.6394 46.8732ZM8.11962 36.4502C7.37502 36.8391 6.873 37.6235 6.87161 38.5291V38.5293C6.87161 39.7741 7.84649 40.7832 9.04974 40.785H60.6011C61.7857 40.7578 62.7365 39.7607 62.7411 38.5329V38.5324C62.7409 37.6254 62.2386 36.8396 61.5059 36.4564L61.493 36.4502L34.8358 23.9452L8.11962 36.4502ZM37.7794 20.6027H31.8923V19.6894C32.049 16.1605 33.8239 13.0921 36.4624 11.2419L36.499 11.2177C37.1863 10.7096 37.629 9.88698 37.629 8.95745C37.629 7.42753 36.4297 6.18731 34.9504 6.18731C33.471 6.18731 32.2717 7.4276 32.2717 8.95745C32.2717 8.9718 32.2718 8.98637 32.272 9.00073V8.99867L26.3848 9.08995C26.3842 9.04824 26.3838 8.99888 26.3838 8.94951C26.3838 4.05729 30.2188 0.0913086 34.9496 0.0913086C39.6804 0.0913086 43.5155 4.05715 43.5155 8.94938C43.5155 11.9493 42.0735 14.6009 39.8673 16.2033L39.787 16.2587C38.6346 17.0601 37.8649 18.3708 37.7801 19.8716L37.7794 19.8842V20.6027Z" fill="#FFF8F8"/>
<path d="M60.6394 46.8732H9.04987C4.59748 46.868 0.9894 43.1368 0.984375 38.5329V38.5324C0.990987 35.2113 2.85123 32.341 5.55193 30.9686L5.59993 30.9466L5.65587 30.9193L34.8358 17.2603L64.0098 30.9587C66.7642 32.3343 68.6308 35.2007 68.6308 38.518C68.6308 43.0988 65.0716 46.8198 60.6571 46.8853H60.6511L60.6394 46.8732ZM8.11962 36.4502C7.37502 36.8391 6.873 37.6235 6.87161 38.5291V38.5293C6.87161 39.7741 7.84649 40.7832 9.04974 40.785H60.6011C61.7857 40.7578 62.7365 39.7607 62.7411 38.5329V38.5324C62.7409 37.6254 62.2386 36.8396 61.5059 36.4564L61.493 36.4502L34.8358 23.9452L8.11962 36.4502ZM37.7794 20.6027H31.8923V19.6894C32.049 16.1605 33.8239 13.0921 36.4624 11.2419L36.499 11.2177C37.1863 10.7096 37.629 9.88698 37.629 8.95745C37.629 7.42753 36.4297 6.18731 34.9504 6.18731C33.471 6.18731 32.2717 7.4276 32.2717 8.95745C32.2717 8.9718 32.2718 8.98637 32.272 9.00073V8.99867L26.3848 9.08995C26.3842 9.04824 26.3838 8.99888 26.3838 8.94951C26.3838 4.05729 30.2188 0.0913086 34.9496 0.0913086C39.6804 0.0913086 43.5155 4.05715 43.5155 8.94938C43.5155 11.9493 42.0735 14.6009 39.8673 16.2033L39.787 16.2587C38.6346 17.0601 37.8649 18.3708 37.7801 19.8716L37.7794 19.8842V20.6027Z" fill="url(#paint0_linear_287_1250)" fill-opacity="0.2"/>
<defs>
<linearGradient id="paint0_linear_287_1250" x1="10.001" y1="52" x2="63.001" y2="1.09291e-06" gradientUnits="userSpaceOnUse">
<stop stop-color="#1B1717"/>
<stop offset="1" stop-opacity="0"/>
</linearGradient>
</defs>
</svg>
