<svg width="61" height="60" viewBox="0 0 61 60" fill="none" xmlns="http://www.w3.org/2000/svg">
<path fill-rule="evenodd" clip-rule="evenodd" d="M13.0353 16.4806V11.7904C13.1619 9.80825 15.1275 5.25769 21.9778 2.91259C28.828 0.567491 35.4336 0.344148 37.8802 0.525614C41.339 0.539581 49.2776 1.16216 53.3607 3.54077C56.1588 4.72728 61.5439 8.26447 60.7003 12.9212V19.8727C60.7565 20.6544 59.8314 22.9046 55.6807 25.6517C55.656 25.6517 55.5061 25.7203 55.2491 25.8378C54.1888 26.3225 51.3062 27.6403 47.8771 28.4156V33.8177C49.8597 34.9205 53.7488 38.0305 53.4451 41.6487V49.0609C53.5154 50.1217 52.4749 52.8381 47.7506 55.2167C45.3181 56.4033 38.5129 58.8433 30.7515 59.1113C22.9901 59.3793 16.1567 57.2966 13.7102 56.2218C11.4324 55.4401 6.66592 52.9973 5.82229 49.4796V40.6855C3.99443 39.7921 0.30496 37.3102 0.16998 34.5296V26.4055C0.155919 24.1999 2.7093 19.1271 13.0353 16.4806ZM16.7047 11.8745C17.1828 9.44565 21.6146 4.48743 35.5176 4.08541C49.4206 3.6834 55.5397 8.13351 56.8614 10.4088C58.0566 12.5864 56.964 18.1776 42.5619 19.9986C24.677 22.26 15.3971 14.1975 16.7047 11.8745ZM16.5782 18.4073V19.3705C16.6907 20.208 18.3245 22.3688 23.9599 24.3119C29.5954 26.255 36.769 26.322 39.6514 26.1126C42.1261 26.0428 48.4758 25.2165 54.0775 22.4693C54.9211 22.0087 56.718 20.8026 57.1567 19.6636V18.4073C56.2709 19.0913 54.0437 20.5849 52.2215 21.0874C51.7686 21.2123 51.3391 21.367 50.8606 21.5393C48.9326 22.2336 46.2101 23.2141 37.9642 23.6838C27.6719 24.27 19.4043 20.5011 16.5782 18.4073ZM21.5556 27.1177C15.3802 24.9736 13.3865 21.4783 13.1615 19.9986C6.78366 21.8077 4.40182 24.4096 4.00813 25.4845C3.60037 26.0289 3.13075 27.5197 4.5143 29.1278C5.89785 30.7358 9.67449 32.5058 11.3899 33.1898C16.4854 34.8984 23.5522 35.1301 26.4486 35.0324C37.0783 34.2954 41.9011 30.9005 42.9837 29.2953C36.4456 29.9653 29.2748 29.7978 21.5556 27.1177ZM3.67068 33.1898V34.3205C3.95189 35.1999 5.79662 37.3775 10.9259 39.0526C16.0551 40.7276 21.3869 41.0626 23.4116 41.0208C26.2377 41.0906 33.1639 40.6858 38.2594 38.5082C39.792 37.9777 43.144 36.4227 44.2914 34.4461V33.1898C42.1964 34.7113 36.3613 37.8298 29.781 38.1313C28.3099 38.1987 27.1248 38.2674 26.1191 38.3258L26.1183 38.3258L26.1179 38.3258L26.1178 38.3258C21.5016 38.5937 20.6651 38.6422 13.288 37.3356C11.3477 36.875 6.70774 35.4009 3.67068 33.1898ZM35.3067 49.2286C38.0485 49.0053 44.477 47.7629 48.2564 44.5803C52.0021 41.0961 48.6923 38.2988 46.5692 37.3356C36.7831 46.8165 17.8296 44.6361 9.57607 42.3608C11.1368 45.8785 15.8611 47.6792 22.2727 48.9355C27.4019 49.9405 33.0992 49.5497 35.3067 49.2286ZM9.36517 47.6792C9.33142 47.7127 9.32299 48.5028 9.32299 48.8936C9.6042 49.9126 11.8961 52.4113 18.8138 54.2538C22.4976 55.2728 32.295 56.6073 42.0136 53.7932C44.1086 53.1511 48.6361 51.2806 49.9859 48.9355V47.6792C48.4955 48.9494 43.8189 51.6994 37.0362 52.5369C30.2534 53.3744 26.0268 53.0534 24.7614 52.7882C22.0055 52.7463 15.0681 51.6659 9.36517 47.6792Z" fill="url(#paint0_linear_287_1253)"/>
<path fill-rule="evenodd" clip-rule="evenodd" d="M13.0353 16.4806V11.7904C13.1619 9.80825 15.1275 5.25769 21.9778 2.91259C28.828 0.567491 35.4336 0.344148 37.8802 0.525614C41.339 0.539581 49.2776 1.16216 53.3607 3.54077C56.1588 4.72728 61.5439 8.26447 60.7003 12.9212V19.8727C60.7565 20.6544 59.8314 22.9046 55.6807 25.6517C55.656 25.6517 55.5061 25.7203 55.2491 25.8378C54.1888 26.3225 51.3062 27.6403 47.8771 28.4156V33.8177C49.8597 34.9205 53.7488 38.0305 53.4451 41.6487V49.0609C53.5154 50.1217 52.4749 52.8381 47.7506 55.2167C45.3181 56.4033 38.5129 58.8433 30.7515 59.1113C22.9901 59.3793 16.1567 57.2966 13.7102 56.2218C11.4324 55.4401 6.66592 52.9973 5.82229 49.4796V40.6855C3.99443 39.7921 0.30496 37.3102 0.16998 34.5296V26.4055C0.155919 24.1999 2.7093 19.1271 13.0353 16.4806ZM16.7047 11.8745C17.1828 9.44565 21.6146 4.48743 35.5176 4.08541C49.4206 3.6834 55.5397 8.13351 56.8614 10.4088C58.0566 12.5864 56.964 18.1776 42.5619 19.9986C24.677 22.26 15.3971 14.1975 16.7047 11.8745ZM16.5782 18.4073V19.3705C16.6907 20.208 18.3245 22.3688 23.9599 24.3119C29.5954 26.255 36.769 26.322 39.6514 26.1126C42.1261 26.0428 48.4758 25.2165 54.0775 22.4693C54.9211 22.0087 56.718 20.8026 57.1567 19.6636V18.4073C56.2709 19.0913 54.0437 20.5849 52.2215 21.0874C51.7686 21.2123 51.3391 21.367 50.8606 21.5393C48.9326 22.2336 46.2101 23.2141 37.9642 23.6838C27.6719 24.27 19.4043 20.5011 16.5782 18.4073ZM21.5556 27.1177C15.3802 24.9736 13.3865 21.4783 13.1615 19.9986C6.78366 21.8077 4.40182 24.4096 4.00813 25.4845C3.60037 26.0289 3.13075 27.5197 4.5143 29.1278C5.89785 30.7358 9.67449 32.5058 11.3899 33.1898C16.4854 34.8984 23.5522 35.1301 26.4486 35.0324C37.0783 34.2954 41.9011 30.9005 42.9837 29.2953C36.4456 29.9653 29.2748 29.7978 21.5556 27.1177ZM3.67068 33.1898V34.3205C3.95189 35.1999 5.79662 37.3775 10.9259 39.0526C16.0551 40.7276 21.3869 41.0626 23.4116 41.0208C26.2377 41.0906 33.1639 40.6858 38.2594 38.5082C39.792 37.9777 43.144 36.4227 44.2914 34.4461V33.1898C42.1964 34.7113 36.3613 37.8298 29.781 38.1313C28.3099 38.1987 27.1248 38.2674 26.1191 38.3258L26.1183 38.3258L26.1179 38.3258L26.1178 38.3258C21.5016 38.5937 20.6651 38.6422 13.288 37.3356C11.3477 36.875 6.70774 35.4009 3.67068 33.1898ZM35.3067 49.2286C38.0485 49.0053 44.477 47.7629 48.2564 44.5803C52.0021 41.0961 48.6923 38.2988 46.5692 37.3356C36.7831 46.8165 17.8296 44.6361 9.57607 42.3608C11.1368 45.8785 15.8611 47.6792 22.2727 48.9355C27.4019 49.9405 33.0992 49.5497 35.3067 49.2286ZM9.36517 47.6792C9.33142 47.7127 9.32299 48.5028 9.32299 48.8936C9.6042 49.9126 11.8961 52.4113 18.8138 54.2538C22.4976 55.2728 32.295 56.6073 42.0136 53.7932C44.1086 53.1511 48.6361 51.2806 49.9859 48.9355V47.6792C48.4955 48.9494 43.8189 51.6994 37.0362 52.5369C30.2534 53.3744 26.0268 53.0534 24.7614 52.7882C22.0055 52.7463 15.0681 51.6659 9.36517 47.6792Z" fill="url(#paint1_linear_287_1253)" fill-opacity="0.2"/>
<path d="M13.0353 11.7904L12.9439 11.7846V11.7904H13.0353ZM13.0353 16.4806L13.058 16.5691L13.1267 16.5515V16.4806H13.0353ZM21.9778 2.91259L21.9482 2.82612L21.9778 2.91259ZM37.8802 0.525614L37.8734 0.61699L37.8798 0.617016L37.8802 0.525614ZM53.3607 3.54077L53.3143 3.62038L53.325 3.62492L53.3607 3.54077ZM60.7003 12.9212L60.6104 12.9049L60.6089 12.913V12.9212H60.7003ZM60.7003 19.8727H60.6087L60.6091 19.8793L60.7003 19.8727ZM55.6807 25.6517V25.7431H55.7082L55.7312 25.7279L55.6807 25.6517ZM55.2491 25.8378L55.2111 25.7546V25.7546L55.2491 25.8378ZM47.8771 28.4156L47.857 28.3264L47.7857 28.3425V28.4156H47.8771ZM47.8771 33.8177H47.7857V33.8714L47.8327 33.8976L47.8771 33.8177ZM53.4451 41.6487L53.3537 41.641V41.6487H53.4451ZM53.4451 49.0609H53.3535L53.3539 49.0669L53.4451 49.0609ZM47.7506 55.2167L47.7907 55.2989L47.7917 55.2984L47.7506 55.2167ZM30.7515 59.1113L30.7483 59.0199L30.7515 59.1113ZM13.7102 56.2218L13.7471 56.1378L13.7399 56.1353L13.7102 56.2218ZM5.82229 49.4796H5.73089V49.4904L5.73341 49.5009L5.82229 49.4796ZM5.82229 40.6855H5.91369V40.6284L5.86242 40.6034L5.82229 40.6855ZM0.16998 34.5296H0.0784697L0.0786848 34.534L0.16998 34.5296ZM0.16998 26.4055H0.261384L0.26138 26.4049L0.16998 26.4055ZM35.5176 4.08541L35.515 3.99405L35.5176 4.08541ZM16.7047 11.8745L16.7844 11.9193L16.7916 11.9065L16.7944 11.8922L16.7047 11.8745ZM56.8614 10.4088L56.9416 10.3648L56.9405 10.3629L56.8614 10.4088ZM42.5619 19.9986L42.5505 19.9079L42.5619 19.9986ZM16.5782 19.3705H16.486L16.4876 19.3826L16.5782 19.3705ZM16.5782 18.4073L16.6326 18.3339L16.4868 18.2258V18.4073H16.5782ZM23.9599 24.3119L23.9897 24.2255L23.9599 24.3119ZM39.6514 26.1126L39.6488 26.0212L39.6448 26.0215L39.6514 26.1126ZM54.0775 22.4693L54.1177 22.5515L54.1213 22.5496L54.0775 22.4693ZM57.1567 19.6636L57.242 19.6964L57.2481 19.6806V19.6636H57.1567ZM57.1567 18.4073H57.2481V18.2212L57.1008 18.3349L57.1567 18.4073ZM52.2215 21.0874L52.2458 21.1755L52.2215 21.0874ZM50.8606 21.5393L50.8297 21.4533L50.8606 21.5393ZM37.9642 23.6838L37.959 23.5925L37.9642 23.6838ZM13.1615 19.9986L13.2519 19.9849L13.2363 19.8824L13.1365 19.9107L13.1615 19.9986ZM21.5556 27.1177L21.5856 27.0313L21.5556 27.1177ZM4.00813 25.4845L4.08128 25.5393L4.08933 25.5285L4.09395 25.5159L4.00813 25.4845ZM4.5143 29.1278L4.44502 29.1874L4.5143 29.1278ZM11.3899 33.1898L11.356 33.2748L11.3608 33.2765L11.3899 33.1898ZM26.4486 35.0324L26.4517 35.1238L26.455 35.1236L26.4486 35.0324ZM42.9837 29.2953L43.0595 29.3464L43.1687 29.1844L42.9744 29.2043L42.9837 29.2953ZM3.67068 34.3205H3.57928V34.3347L3.58362 34.3483L3.67068 34.3205ZM3.67068 33.1898L3.72448 33.1159L3.57928 33.0102V33.1898H3.67068ZM23.4116 41.0208L23.4138 40.9293L23.4097 40.9294L23.4116 41.0208ZM38.2594 38.5082L38.2295 38.4216L38.2235 38.4241L38.2594 38.5082ZM44.2914 34.4461L44.3704 34.492L44.3828 34.4707V34.4461H44.2914ZM44.2914 33.1898H44.3828V33.0105L44.2377 33.1159L44.2914 33.1898ZM29.781 38.1313L29.7852 38.2226L29.781 38.1313ZM26.1191 38.3258L26.1243 38.417L26.1244 38.417L26.1191 38.3258ZM26.1183 38.3258L26.1131 38.2346L26.1127 38.2346L26.1183 38.3258ZM26.1179 38.3258L26.1123 38.2346L26.11 38.2348L26.1179 38.3258ZM26.1178 38.3258L26.1231 38.4171L26.1257 38.4169L26.1178 38.3258ZM13.288 37.3356L13.2669 37.4247L13.2721 37.4256L13.288 37.3356ZM48.2564 44.5803L48.3154 44.6503L48.3187 44.6472L48.2564 44.5803ZM35.3067 49.2286L35.2993 49.1373L35.2936 49.1382L35.3067 49.2286ZM46.5692 37.3356L46.6069 37.2524L46.5503 37.2267L46.5056 37.27L46.5692 37.3356ZM9.57607 42.3608L9.60037 42.2727L9.41422 42.2214L9.49253 42.3979L9.57607 42.3608ZM22.2727 48.9355L22.2551 49.0252L22.2727 48.9355ZM9.32299 48.8936H9.23158V48.906L9.23488 48.9179L9.32299 48.8936ZM9.36517 47.6792L9.41754 47.6043L9.35495 47.5605L9.30077 47.6143L9.36517 47.6792ZM18.8138 54.2538L18.8382 54.1657L18.8373 54.1655L18.8138 54.2538ZM42.0136 53.7932L42.039 53.881L42.0404 53.8806L42.0136 53.7932ZM49.9859 48.9355L50.0651 48.9811L50.0773 48.9599V48.9355H49.9859ZM49.9859 47.6792H50.0773V47.4812L49.9266 47.6096L49.9859 47.6792ZM37.0362 52.5369L37.0474 52.6276L37.0362 52.5369ZM24.7614 52.7882L24.7801 52.6987L24.7715 52.6969L24.7628 52.6968L24.7614 52.7882ZM12.9439 11.7904V16.4806H13.1267V11.7904H12.9439ZM21.9482 2.82612C15.0672 5.18173 13.0733 9.7613 12.9441 11.7846L13.1265 11.7962C13.2504 9.8552 15.1878 5.33365 22.0074 2.99907L21.9482 2.82612ZM37.8869 0.434462C35.4297 0.252201 28.8115 0.476531 21.9482 2.82612L22.0074 2.99907C28.8445 0.658451 35.4376 0.436095 37.8734 0.616766L37.8869 0.434462ZM53.4067 3.46179C51.3498 2.26352 48.3302 1.51123 45.4004 1.05613C42.468 0.600643 39.614 0.441212 37.8805 0.434213L37.8798 0.617016C39.6051 0.623982 42.4499 0.782827 45.3723 1.23677C48.2972 1.69111 51.2885 2.43941 53.3147 3.61975L53.4067 3.46179ZM60.7902 12.9375C61.2196 10.5671 60.0616 8.4901 58.4612 6.8655C56.8603 5.24028 54.8036 4.05332 53.3964 3.45662L53.325 3.62492C54.7159 4.21472 56.7508 5.38961 58.331 6.99379C59.9119 8.59859 61.0246 10.6185 60.6104 12.9049L60.7902 12.9375ZM60.7917 19.8727V12.9212H60.6089V19.8727H60.7917ZM55.7312 25.7279C57.8131 24.35 59.0907 23.0937 59.8415 22.0796C60.5895 21.0693 60.8219 20.2894 60.7915 19.8662L60.6091 19.8793C60.6349 20.2378 60.4328 20.9737 59.6946 21.9708C58.9593 22.964 57.6989 24.2063 55.6303 25.5755L55.7312 25.7279ZM55.2871 25.9209C55.4159 25.862 55.5168 25.8159 55.5887 25.7844C55.6247 25.7686 55.6522 25.7571 55.6717 25.7496C55.6816 25.7458 55.6881 25.7436 55.692 25.7424C55.6991 25.7403 55.6925 25.7431 55.6807 25.7431V25.5603C55.6627 25.5603 55.646 25.5653 55.6392 25.5674C55.6292 25.5704 55.618 25.5744 55.6063 25.5789C55.5827 25.588 55.552 25.6009 55.5154 25.617C55.4418 25.6491 55.3392 25.696 55.2111 25.7546L55.2871 25.9209ZM47.8973 28.5047C51.3362 27.7273 54.226 26.406 55.2871 25.9209L55.2111 25.7546C54.1516 26.239 51.2763 27.5534 47.857 28.3264L47.8973 28.5047ZM47.9685 33.8177V28.4156H47.7857V33.8177H47.9685ZM53.5362 41.6563C53.691 39.8118 52.7769 38.1061 51.5876 36.7301C50.3973 35.353 48.9204 34.2934 47.9216 33.7378L47.8327 33.8976C48.8164 34.4447 50.2754 35.4915 51.4493 36.8497C52.6243 38.209 53.5029 39.8673 53.354 41.641L53.5362 41.6563ZM53.5365 49.0609V41.6487H53.3537V49.0609H53.5365ZM47.7917 55.2984C50.1638 54.1041 51.6168 52.8221 52.4686 51.6999C53.3188 50.58 53.5734 49.6143 53.5363 49.0548L53.3539 49.0669C53.3871 49.5683 53.1566 50.4913 52.323 51.5894C51.4911 52.6853 50.0617 53.9508 47.7095 55.1351L47.7917 55.2984ZM30.7547 59.2026C38.5308 58.9341 45.3485 56.4901 47.7907 55.2989L47.7105 55.1346C45.2877 56.3164 38.495 58.7524 30.7483 59.0199L30.7547 59.2026ZM13.6734 56.3055C16.1307 57.385 22.9777 59.4712 30.7547 59.2026L30.7483 59.0199C23.0026 59.2874 16.1828 57.2082 13.747 56.1381L13.6734 56.3055ZM5.73341 49.5009C6.16282 51.2915 7.58667 52.798 9.17475 53.9507C10.765 55.1049 12.5345 55.9149 13.6805 56.3082L13.7399 56.1353C12.6081 55.7469 10.8555 54.9447 9.28213 53.8027C7.7066 52.6591 6.32538 51.1854 5.91117 49.4583L5.73341 49.5009ZM5.73089 40.6855V49.4796H5.91369V40.6855H5.73089ZM0.0786848 34.534C0.147971 35.9613 1.12676 37.2982 2.29925 38.3824C3.47474 39.4693 4.86188 40.3178 5.78215 40.7676L5.86242 40.6034C4.95483 40.1598 3.58331 39.3207 2.42336 38.2482C1.2604 37.1728 0.326968 35.8785 0.261274 34.5252L0.0786848 34.534ZM0.0785773 26.4055V34.5296H0.261382V26.4055H0.0785773ZM13.0126 16.3921C2.66918 19.0431 0.064124 24.1386 0.0785792 26.4061L0.26138 26.4049C0.247714 24.2612 2.74942 19.2112 13.058 16.5691L13.0126 16.3921ZM35.515 3.99405C28.5536 4.19534 23.9547 5.53746 21.0329 7.13975C18.1137 8.74063 16.8612 10.6063 16.615 11.8568L16.7944 11.8922C17.0263 10.7139 18.2288 8.88598 21.1208 7.30004C24.0102 5.7155 28.5786 4.3775 35.5203 4.17678L35.515 3.99405ZM56.9405 10.3629C56.2653 9.20068 54.3842 7.5088 50.9409 6.15803C47.4945 4.80605 42.4764 3.79275 35.515 3.99405L35.5203 4.17678C42.4618 3.97606 47.4548 4.98681 50.8741 6.32821C54.2966 7.67081 56.1358 9.34164 56.7824 10.4547L56.9405 10.3629ZM42.5734 20.0893C49.7824 19.1778 53.6798 17.3209 55.6248 15.4025C57.5737 13.4804 57.5615 11.4945 56.9416 10.3648L56.7813 10.4528C57.3565 11.5008 57.3956 13.3992 55.4965 15.2724C53.5935 17.1493 49.7436 18.9984 42.5505 19.9079L42.5734 20.0893ZM16.6251 11.8297C16.4436 12.1521 16.4523 12.5627 16.6211 13.0152C16.7902 13.4684 17.1233 13.975 17.611 14.5039C18.5868 15.5622 20.1941 16.7235 22.3979 17.7387C26.807 19.7699 33.6156 21.2219 42.5734 20.0893L42.5505 19.9079C33.6233 21.0367 26.8495 19.5882 22.4744 17.5727C20.2861 16.5646 18.7007 15.416 17.7454 14.38C17.2675 13.8616 16.9504 13.3749 16.7924 12.9513C16.6342 12.5272 16.639 12.1776 16.7844 11.9193L16.6251 11.8297ZM16.6696 19.3705V18.4073H16.4868V19.3705H16.6696ZM23.9897 24.2255C21.1788 23.2563 19.3713 22.2346 18.2545 21.3548C17.6961 20.9149 17.3115 20.5114 17.0603 20.1686C16.808 19.8244 16.6941 19.5467 16.6688 19.3583L16.4876 19.3826C16.5185 19.613 16.651 19.9194 16.9128 20.2767C17.1757 20.6354 17.5728 21.0505 18.1414 21.4984C19.2785 22.3942 21.1056 23.4245 23.9301 24.3983L23.9897 24.2255ZM39.6448 26.0215C36.768 26.2304 29.6085 26.1628 23.9897 24.2255L23.9301 24.3983C29.5823 26.3472 36.77 26.4136 39.658 26.2038L39.6448 26.0215ZM54.0372 22.3873C48.4504 25.1271 42.1144 25.9517 39.6488 26.0213L39.654 26.204C42.1377 26.1339 48.5011 25.3058 54.1177 22.5514L54.0372 22.3873ZM57.0714 19.6307C56.8611 20.1768 56.3184 20.7504 55.7109 21.2503C55.1064 21.7476 54.4512 22.1611 54.0336 22.3891L54.1213 22.5496C54.5474 22.3169 55.2124 21.8971 55.827 21.3915C56.4385 20.8884 57.0136 20.2894 57.242 19.6964L57.0714 19.6307ZM57.0653 18.4073V19.6636H57.2481V18.4073H57.0653ZM52.2458 21.1755C54.0859 20.6681 56.3247 19.1652 57.2126 18.4796L57.1008 18.3349C56.2171 19.0174 54.0015 20.5017 52.1972 20.9993L52.2458 21.1755ZM50.8916 21.6253C51.3706 21.4528 51.7968 21.2993 52.2458 21.1755L52.1972 20.9993C51.7404 21.1253 51.3075 21.2812 50.8297 21.4533L50.8916 21.6253ZM37.9694 23.775C46.2237 23.3048 48.9549 22.3228 50.8916 21.6253L50.8297 21.4533C48.9104 22.1445 46.1966 23.1233 37.959 23.5925L37.9694 23.775ZM16.5238 18.4807C19.3665 20.5869 27.655 24.3626 37.9694 23.775L37.959 23.5925C27.6888 24.1775 19.4422 20.4154 16.6326 18.3339L16.5238 18.4807ZM13.0711 20.0124C13.3028 21.5361 15.3298 25.0528 21.5256 27.204L21.5856 27.0313C15.4307 24.8943 13.4701 21.4204 13.2519 19.9849L13.0711 20.0124ZM4.09395 25.5159C4.28151 25.0039 4.95796 24.098 6.39323 23.0917C7.8253 22.0876 10.0055 20.9888 13.1864 20.0865L13.1365 19.9107C9.93965 20.8175 7.74001 21.9242 6.28828 22.942C4.83975 23.9577 4.12844 24.8903 3.9223 25.453L4.09395 25.5159ZM4.58359 29.0681C3.23068 27.4957 3.69669 26.0527 4.08128 25.5393L3.93497 25.4297C3.50405 26.005 3.03082 27.5437 4.44502 29.1874L4.58359 29.0681ZM11.4237 33.1049C10.569 32.7641 9.19937 32.1521 7.87155 31.4251C6.5406 30.6964 5.26365 29.8586 4.58359 29.0681L4.44502 29.1874C5.14851 30.005 6.45165 30.8562 7.78376 31.5855C9.11899 32.3165 10.4954 32.9315 11.356 33.2747L11.4237 33.1049ZM26.4456 34.941C23.5527 35.0386 16.4989 34.8065 11.4189 33.1031L11.3608 33.2765C16.4719 34.9902 23.5516 35.2216 26.4517 35.1237L26.4456 34.941ZM42.908 29.2442C42.3806 30.026 40.9225 31.2671 38.2604 32.4054C35.6015 33.5422 31.7486 34.5733 26.4423 34.9412L26.455 35.1236C31.7784 34.7545 35.6517 33.7196 38.3323 32.5735C41.0096 31.4287 42.5042 30.1698 43.0595 29.3464L42.908 29.2442ZM21.5256 27.204C29.2611 29.8898 36.4462 30.0571 42.9931 29.3862L42.9744 29.2043C36.445 29.8735 29.2884 29.7058 21.5856 27.0313L21.5256 27.204ZM3.76208 34.3205V33.1898H3.57928V34.3205H3.76208ZM10.9543 38.9657C8.39745 38.1307 6.66348 37.1718 5.53553 36.3154C4.40443 35.4565 3.89004 34.7064 3.75774 34.2926L3.58362 34.3483C3.73253 34.814 4.28111 35.5924 5.42499 36.4609C6.57203 37.3319 8.32506 38.2994 10.8975 39.1394L10.9543 38.9657ZM23.4097 40.9294C21.3928 40.9711 16.0716 40.6369 10.9543 38.9657L10.8975 39.1394C16.0386 40.8184 21.381 41.1542 23.4135 41.1122L23.4097 40.9294ZM38.2235 38.4241C33.1457 40.5942 26.2348 40.9991 23.4138 40.9294L23.4093 41.1121C26.2406 41.1821 33.1822 40.7774 38.2953 38.5922L38.2235 38.4241ZM44.2123 34.4002C43.6507 35.3678 42.5425 36.2409 41.3729 36.941C40.206 37.6395 38.9906 38.1584 38.2295 38.4218L38.2893 38.5945C39.0608 38.3275 40.2878 37.8036 41.4668 37.0979C42.6433 36.3937 43.7848 35.501 44.3704 34.492L44.2123 34.4002ZM44.2 33.1898V34.4461H44.3828V33.1898H44.2ZM29.7852 38.2226C36.3881 37.92 42.24 34.7926 44.3451 33.2638L44.2377 33.1159C42.1527 34.6301 36.3345 37.7395 29.7768 38.04L29.7852 38.2226ZM26.1244 38.417C27.1301 38.3587 28.3146 38.29 29.7852 38.2226L29.7768 38.04C28.3051 38.1074 27.1195 38.1762 26.1138 38.2345L26.1244 38.417ZM26.1235 38.4171L26.1243 38.417L26.1139 38.2345L26.1131 38.2346L26.1235 38.4171ZM26.1236 38.4171L26.1239 38.417L26.1127 38.2346L26.1123 38.2346L26.1236 38.4171ZM26.1257 38.4169L26.1259 38.4169L26.11 38.2348L26.1099 38.2348L26.1257 38.4169ZM13.2721 37.4256C16.9602 38.0788 19.0182 38.3942 20.732 38.5123C22.447 38.6305 23.8159 38.5509 26.1231 38.4171L26.1125 38.2346C23.8035 38.3686 22.4461 38.4472 20.7445 38.3299C19.0417 38.2126 16.9929 37.899 13.304 37.2456L13.2721 37.4256ZM3.61688 33.2637C6.66855 35.4854 11.3225 36.9629 13.2669 37.4245L13.3092 37.2467C11.3729 36.787 6.74693 35.3164 3.72448 33.1159L3.61688 33.2637ZM48.1975 44.5104C46.3213 46.0903 43.7827 47.1921 41.3659 47.9267C38.95 48.6611 36.6639 49.0264 35.2993 49.1375L35.3142 49.3197C36.6913 49.2075 38.9903 48.8399 41.419 48.1016C43.8467 47.3637 46.4121 46.2529 48.3153 44.6502L48.1975 44.5104ZM46.5314 37.4188C47.5843 37.8965 48.9206 38.8251 49.5318 40.0533C49.8359 40.6645 49.9603 41.3491 49.7827 42.0927C49.6047 42.8376 49.1216 43.6507 48.1942 44.5134L48.3187 44.6472C49.2641 43.7678 49.7719 42.9247 49.9605 42.1351C50.1494 41.3442 50.0159 40.6159 49.6954 39.9719C49.0574 38.6896 47.6772 37.7379 46.6069 37.2524L46.5314 37.4188ZM9.55178 42.4489C13.6865 43.5888 20.498 44.7043 27.5025 44.3481C34.5051 43.992 41.7165 42.1642 46.6328 37.4013L46.5056 37.27C41.6357 41.9879 34.4773 43.8104 27.4933 44.1655C20.5111 44.5206 13.7192 43.4082 9.60037 42.2727L9.55178 42.4489ZM22.2903 48.8458C19.0871 48.2182 16.3121 47.4557 14.1449 46.4138C11.9779 45.3719 10.4278 44.0552 9.65962 42.3238L9.49253 42.3979C10.285 44.1841 11.8775 45.5265 14.0657 46.5785C16.2538 47.6305 19.0467 48.3965 22.2551 49.0252L22.2903 48.8458ZM35.2936 49.1382C33.0923 49.4583 27.4061 49.8482 22.2903 48.8458L22.2551 49.0252C27.3978 50.0329 33.1061 49.641 35.3199 49.3191L35.2936 49.1382ZM9.41439 48.8936C9.41439 48.6986 9.4165 48.4042 9.4228 48.1547C9.42595 48.0298 9.43013 47.9171 9.43555 47.8341C9.43827 47.7923 9.44121 47.7596 9.44424 47.7372C9.44579 47.7258 9.44709 47.7191 9.44785 47.716C9.44824 47.7145 9.44802 47.7158 9.44683 47.7187C9.44647 47.7196 9.44189 47.7318 9.42957 47.744L9.30077 47.6143C9.28633 47.6287 9.2797 47.6444 9.27733 47.6503C9.27412 47.6582 9.27194 47.6659 9.27042 47.672C9.26734 47.6844 9.265 47.6986 9.26309 47.7127C9.2592 47.7414 9.25595 47.779 9.25313 47.8222C9.24748 47.9089 9.24322 48.0244 9.24005 48.1501C9.2337 48.4017 9.23158 48.6977 9.23158 48.8936H9.41439ZM18.8373 54.1655C15.3855 53.2461 13.0929 52.1643 11.6304 51.1888C10.8991 50.7011 10.3763 50.2406 10.02 49.8411C9.66243 49.4403 9.47623 49.1053 9.4111 48.8693L9.23488 48.9179C9.31034 49.1914 9.51608 49.5509 9.88355 49.9628C10.2522 50.376 10.7874 50.8463 11.529 51.3409C13.0121 52.3302 15.3243 53.419 18.7903 54.3422L18.8373 54.1655ZM41.9882 53.7054C32.2895 56.5137 22.5099 55.1814 18.8382 54.1657L18.7894 54.3419C22.4854 55.3643 32.3004 56.7009 42.039 53.881L41.9882 53.7054ZM49.9066 48.8899C49.2454 50.0388 47.7962 51.0826 46.2359 51.9225C44.6795 52.7602 43.0295 53.3862 41.9868 53.7058L42.0404 53.8806C43.0926 53.5581 44.7539 52.9277 46.3225 52.0834C47.887 51.2413 49.3765 50.1773 50.0651 48.9811L49.9066 48.8899ZM49.8945 47.6792V48.9355H50.0773V47.6792H49.8945ZM37.0474 52.6276C43.847 51.788 48.5405 49.0312 50.0452 47.7487L49.9266 47.6096C48.4504 48.8677 43.7909 51.6107 37.025 52.4462L37.0474 52.6276ZM24.7426 52.8776C26.022 53.1457 30.2598 53.4657 37.0474 52.6276L37.025 52.4462C30.247 53.2831 26.0317 52.961 24.7801 52.6987L24.7426 52.8776ZM9.3128 47.7541C15.0348 51.7541 21.9916 52.8375 24.76 52.8795L24.7628 52.6968C22.0194 52.6551 15.1014 51.5776 9.41754 47.6043L9.3128 47.7541Z" fill="#FFF9F9"/>
<defs>
<linearGradient id="paint0_linear_287_1253" x1="61" y1="6" x2="9" y2="59" gradientUnits="userSpaceOnUse">
<stop stop-color="#FFFBFB"/>
<stop offset="1" stop-color="#FFFBFB" stop-opacity="0.99"/>
</linearGradient>
<linearGradient id="paint1_linear_287_1253" x1="9" y1="59" x2="61" y2="-5.5" gradientUnits="userSpaceOnUse">
<stop/>
<stop offset="1" stop-opacity="0"/>
</linearGradient>
</defs>
</svg>
