<svg width="52" height="67" viewBox="0 0 52 67" fill="none" xmlns="http://www.w3.org/2000/svg">
<path d="M38.0996 34.1L22.1996 50.225H43.8746V59H8.84961V52.025L32.1746 28.175C33.7746 26.725 34.5746 24.975 34.5746 22.925C34.5746 21.325 33.9746 20.025 32.7746 19.025C31.5746 18.025 30.0246 17.525 28.1246 17.525H9.37461V8.75H28.1246C32.6746 8.75 36.3746 10.05 39.2246 12.65C42.0746 15.25 43.4996 18.525 43.4996 22.475C43.4996 26.725 41.6996 30.6 38.0996 34.1Z" fill="#F5F5F5"/>
<path fill-rule="evenodd" clip-rule="evenodd" d="M32.1746 28.175C33.7746 26.725 34.5746 24.975 34.5746 22.925C34.5746 21.325 33.9746 20.025 32.7746 19.025C31.5746 18.025 30.0246 17.525 28.1246 17.525H9.37461V8.75H28.1246C32.6746 8.75 36.3746 10.05 39.2246 12.65C42.0746 15.25 43.4996 18.525 43.4996 22.475C43.4996 26.725 41.6996 30.6 38.0996 34.1L22.1996 50.225H43.8746V59H8.84961V52.025L32.1746 28.175ZM41.323 42.225H51.8746V67H0.849609V48.7633L23.5764 25.525H1.37461V0.75H28.1246C34.2896 0.75 40.034 2.55956 44.6163 6.73987C49.1725 10.8964 51.4996 16.337 51.4996 22.475C51.4996 29.2451 48.5484 35.0727 43.741 39.7728L41.323 42.225Z" fill="url(#paint0_linear_249_251)"/>
<defs>
<linearGradient id="paint0_linear_249_251" x1="54.9996" y1="33.5" x2="-6.50039" y2="33.5" gradientUnits="userSpaceOnUse">
<stop stop-color="#5AC0D7"/>
<stop offset="1" stop-color="#01509B"/>
</linearGradient>
</defs>
</svg>
