<svg width="57" height="70" viewBox="0 0 57 70" fill="none" xmlns="http://www.w3.org/2000/svg">
<path d="M8.90039 41.1002V28.6502C8.90039 22.8502 10.7754 18.0752 14.5254 14.3252C18.3254 10.5752 23.1004 8.7002 28.8504 8.7002C34.5504 8.7002 39.3004 10.5752 43.1004 14.3252C46.9004 18.0252 48.8004 22.7752 48.8004 28.5752V41.1002C48.8004 46.9002 46.8754 51.6752 43.0254 55.4252C39.2254 59.1752 34.4754 61.0502 28.7754 61.0502C23.0754 61.0502 18.3254 59.1752 14.5254 55.4252C10.7754 51.6752 8.90039 46.9002 8.90039 41.1002ZM17.9004 28.6502V41.1002C17.9004 44.4502 18.9004 47.1252 20.9004 49.1252C22.9504 51.1252 25.5754 52.1252 28.7754 52.1252C31.9754 52.1252 34.6254 51.1252 36.7254 49.1252C38.8254 47.0752 39.8754 44.4002 39.8754 41.1002V28.5752C39.8754 25.3252 38.8254 22.6752 36.7254 20.6252C34.6754 18.5252 32.0504 17.4752 28.8504 17.4752C25.6504 17.4752 23.0254 18.5002 20.9754 20.5502C18.9254 22.6002 17.9004 25.3002 17.9004 28.6502Z" fill="#F5F5F5"/>
<path fill-rule="evenodd" clip-rule="evenodd" d="M8.88727 8.64961L8.90612 8.631C14.3258 3.28263 21.1757 0.700195 28.8504 0.700195C36.4874 0.700195 43.298 3.29048 48.7005 8.6121C54.187 13.9643 56.8004 20.8487 56.8004 28.5752V41.1002C56.8004 48.86 54.1401 55.7571 48.6262 61.1376C43.2236 66.4597 36.4127 69.0502 28.7754 69.0502C21.1293 69.0502 14.3116 66.4538 8.90612 61.1194L8.88727 61.1008L8.86854 61.0821C3.47038 55.6839 0.900391 48.8032 0.900391 41.1002V28.6502C0.900391 20.9471 3.47038 14.0665 8.86854 8.66834L8.88727 8.64961ZM43.0254 55.4252C46.8754 51.6752 48.8004 46.9002 48.8004 41.1002V28.5752C48.8004 22.7752 46.9004 18.0252 43.1004 14.3252C39.3004 10.5752 34.5504 8.7002 28.8504 8.7002C23.1004 8.7002 18.3254 10.5752 14.5254 14.3252C10.7754 18.0752 8.90039 22.8502 8.90039 28.6502V41.1002C8.90039 46.9002 10.7754 51.6752 14.5254 55.4252C18.3254 59.1752 23.0754 61.0502 28.7754 61.0502C34.4754 61.0502 39.2254 59.1752 43.0254 55.4252ZM36.7254 20.6252C34.6754 18.5252 32.0504 17.4752 28.8504 17.4752C25.6504 17.4752 23.0254 18.5002 20.9754 20.5502C18.9254 22.6002 17.9004 25.3002 17.9004 28.6502V41.1002C17.9004 44.4502 18.9004 47.1252 20.9004 49.1252C22.9504 51.1252 25.5754 52.1252 28.7754 52.1252C31.9754 52.1252 34.6254 51.1252 36.7254 49.1252C38.8254 47.0752 39.8754 44.4002 39.8754 41.1002V28.5752C39.8754 25.3252 38.8254 22.6752 36.7254 20.6252ZM26.5239 43.4344C26.8975 43.7878 27.4407 44.1252 28.7754 44.1252C30.1162 44.1252 30.7228 43.7823 31.1718 43.3662C31.5205 43.0159 31.8754 42.4928 31.8754 41.1002V28.5752C31.8754 27.2255 31.5216 26.7252 31.1371 26.3498L31.0681 26.2825L31.0008 26.2135C30.6003 25.8033 30.1106 25.4752 28.8504 25.4752C27.5305 25.4752 27.0193 25.82 26.6322 26.207C26.3176 26.5217 25.9004 27.0646 25.9004 28.6502V41.1002C25.9004 42.6712 26.2911 43.1928 26.5239 43.4344Z" fill="url(#paint0_linear_249_245)"/>
<defs>
<linearGradient id="paint0_linear_249_245" x1="61.0004" y1="34.5002" x2="-9.28532" y2="34.5002" gradientUnits="userSpaceOnUse">
<stop stop-color="#5AC0D7"/>
<stop offset="1" stop-color="#01509F"/>
</linearGradient>
</defs>
</svg>
