<svg width="69" height="35" viewBox="0 0 69 35" fill="none" xmlns="http://www.w3.org/2000/svg">
<path d="M6.81898 1.41211H0.697266L7.81311 33.2833H14.4057L20.3705 9.35215L26.5445 33.2833H32.9278L40.1483 1.41211H34.1836L29.4746 23.5665L24.1377 1.41211H17.0218L11.371 23.3444L6.81898 1.41211Z" fill="#FFF8F8"/>
<path d="M6.81898 1.41211H0.697266L7.81311 33.2833H14.4057L20.3705 9.35215L26.5445 33.2833H32.9278L40.1483 1.41211H34.1836L29.4746 23.5665L24.1377 1.41211H17.0218L11.371 23.3444L6.81898 1.41211Z" fill="url(#paint0_linear_287_1232)" fill-opacity="0.2"/>
<path d="M6.81898 1.41211H0.697266L7.81311 33.2833H14.4057L20.3705 9.35215L26.5445 33.2833H32.9278L40.1483 1.41211H34.1836L29.4746 23.5665L24.1377 1.41211H17.0218L11.371 23.3444L6.81898 1.41211Z" stroke="#FFFAFA" stroke-width="0.163397"/>
<path d="M45.5212 6.10152C46.0645 5.38709 46.9317 4.5015 47.2974 4.14801C50.5155 0.575871 56.6487 0.65029 59.313 1.13402C65.9164 2.51822 68.0548 7.81317 68.2986 10.2876L62.3953 11.7946C62.1167 10.3434 60.8551 7.7015 58.5816 6.77129C56.1263 5.76664 54.2804 6.54803 53.6187 6.77129C52.6435 6.86432 50.3692 7.99921 49.0736 11.7946C47.7781 15.59 48.5338 20.7808 49.0736 22.9017C49.3662 25.2236 51.1807 26.9576 52.0514 27.5343C52.8525 28.2227 55.1755 29.3539 58.0592 28.3715C60.943 27.3892 62.3256 23.6459 62.6565 21.8971L68.5076 23.9064C68.3474 24.3771 68.1426 24.9775 67.9769 25.4609C67.9526 25.5491 67.8699 25.8011 67.7408 26.1461C67.6872 26.2999 67.665 26.3602 67.6921 26.2748C67.327 27.2291 66.6569 28.7558 65.8955 29.5995C64.485 31.1623 64.8507 31.1623 62.3431 32.6135C60.337 33.7744 58.303 34.0646 57.5368 34.0646H53.8799C53.6709 34.0274 53.2216 33.953 53.0963 33.953C52.9395 33.953 51.8425 33.6739 50.3274 33.0042C48.8124 32.3344 48.708 32.1111 47.4019 31.1065C46.3571 30.3027 45.1555 28.6134 44.6853 27.8692C43.9017 26.6413 43.3897 25.1008 43.0136 24.0738C42.6375 23.0468 42.2996 20.0366 42.1777 18.6598C42.1777 17.6551 42.3345 15.1993 42.5434 13.9156C42.7444 12.6807 42.8569 11.7574 42.9614 11.4597C43.5047 9.49505 44.1281 8.29689 44.3719 7.9434C44.5286 7.62712 44.9779 6.81594 45.5212 6.10152Z" fill="#FFF8F8"/>
<path d="M45.5212 6.10152C46.0645 5.38709 46.9317 4.5015 47.2974 4.14801C50.5155 0.575871 56.6487 0.65029 59.313 1.13402C65.9164 2.51822 68.0548 7.81317 68.2986 10.2876L62.3953 11.7946C62.1167 10.3434 60.8551 7.7015 58.5816 6.77129C56.1263 5.76664 54.2804 6.54803 53.6187 6.77129C52.6435 6.86432 50.3692 7.99921 49.0736 11.7946C47.7781 15.59 48.5338 20.7808 49.0736 22.9017C49.3662 25.2236 51.1807 26.9576 52.0514 27.5343C52.8525 28.2227 55.1755 29.3539 58.0592 28.3715C60.943 27.3892 62.3256 23.6459 62.6565 21.8971L68.5076 23.9064C68.3474 24.3771 68.1426 24.9775 67.9769 25.4609C67.9526 25.5491 67.8699 25.8011 67.7408 26.1461C67.6872 26.2999 67.665 26.3602 67.6921 26.2748C67.327 27.2291 66.6569 28.7558 65.8955 29.5995C64.485 31.1623 64.8507 31.1623 62.3431 32.6135C60.337 33.7744 58.303 34.0646 57.5368 34.0646H53.8799C53.6709 34.0274 53.2216 33.953 53.0963 33.953C52.9395 33.953 51.8425 33.6739 50.3274 33.0042C48.8124 32.3344 48.708 32.1111 47.4019 31.1065C46.3571 30.3027 45.1555 28.6134 44.6853 27.8692C43.9017 26.6413 43.3897 25.1008 43.0136 24.0738C42.6375 23.0468 42.2996 20.0366 42.1777 18.6598C42.1777 17.6551 42.3345 15.1993 42.5434 13.9156C42.7444 12.6807 42.8569 11.7574 42.9614 11.4597C43.5047 9.49505 44.1281 8.29689 44.3719 7.9434C44.5286 7.62712 44.9779 6.81594 45.5212 6.10152Z" fill="url(#paint1_linear_287_1232)" fill-opacity="0.2"/>
<path d="M45.5212 6.10152C46.0645 5.38709 46.9317 4.5015 47.2974 4.14801C50.5155 0.575871 56.6487 0.65029 59.313 1.13402C65.9164 2.51822 68.0548 7.81317 68.2986 10.2876L62.3953 11.7946C62.1167 10.3434 60.8551 7.7015 58.5816 6.77129C56.1263 5.76664 54.2804 6.54803 53.6187 6.77129C52.6435 6.86432 50.3692 7.99921 49.0736 11.7946C47.7781 15.59 48.5338 20.7808 49.0736 22.9017C49.3662 25.2236 51.1807 26.9576 52.0514 27.5343C52.8525 28.2227 55.1755 29.3539 58.0592 28.3715C60.943 27.3892 62.3256 23.6459 62.6565 21.8971L68.5076 23.9064C68.3474 24.3771 68.1426 24.9775 67.9769 25.4609C67.9526 25.5491 67.8699 25.8011 67.7408 26.1461C67.6872 26.2999 67.665 26.3602 67.6921 26.2748C67.327 27.2291 66.6569 28.7558 65.8955 29.5995C64.485 31.1623 64.8507 31.1623 62.3431 32.6135C60.337 33.7744 58.303 34.0646 57.5368 34.0646H53.8799C53.6709 34.0274 53.2216 33.953 53.0963 33.953C52.9395 33.953 51.8425 33.6739 50.3274 33.0042C48.8124 32.3344 48.708 32.1111 47.4019 31.1065C46.3571 30.3027 45.1555 28.6134 44.6853 27.8692C43.9017 26.6413 43.3897 25.1008 43.0136 24.0738C42.6375 23.0468 42.2996 20.0366 42.1777 18.6598C42.1777 17.6551 42.3345 15.1993 42.5434 13.9156C42.7444 12.6807 42.8569 11.7574 42.9614 11.4597C43.5047 9.49505 44.1281 8.29689 44.3719 7.9434C44.5286 7.62712 44.9779 6.81594 45.5212 6.10152Z" stroke="#FFFAFA" stroke-width="0.163397"/>
<defs>
<linearGradient id="paint0_linear_287_1232" x1="14.5005" y1="43.5" x2="70.9486" y2="23.5237" gradientUnits="userSpaceOnUse">
<stop/>
<stop offset="1" stop-opacity="0"/>
</linearGradient>
<linearGradient id="paint1_linear_287_1232" x1="32.5" y1="41.5" x2="77.0669" y2="34.7353" gradientUnits="userSpaceOnUse">
<stop/>
<stop offset="1" stop-opacity="0"/>
</linearGradient>
</defs>
</svg>
